solid prism_001
color 0.000000 0.784314 0.039216
facet normal 0.000000 0.000000 1.000000
		outer loop
			vertex 0.000000 0.000000 0.000000
			vertex 4.949747 4.949748 0.000000
			vertex -0.783752 6.955985 0.000000
		end loop
	endfacet
facet normal 0.000000 0.000000 1.000000
		outer loop
			vertex 0.000000 0.000000 15.000000
			vertex 4.949747 4.949748 14.999999
			vertex -0.783752 6.955985 14.999999
		end loop
	endfacet
facet normal 30.093554 86.002464 0.000000
		outer loop
			vertex 4.949747 4.949748 0.000000
			vertex -0.783752 6.955985 0.000000
			vertex 4.949747 4.949748 14.999999
		end loop
	endfacet
facet normal 30.093554 86.002464 0.000000
		outer loop
			vertex -0.783752 6.955985 0.000000
			vertex -0.783752 6.955985 14.999999
			vertex 4.949747 4.949748 14.999999
		end loop
	endfacet
facet normal 0.000000 0.000000 1.000000
		outer loop
			vertex 0.000000 0.000000 0.000000
			vertex -0.783752 6.955985 0.000000
			vertex -5.927070 3.724224 0.000000
		end loop
	endfacet
facet normal 0.000000 0.000000 1.000000
		outer loop
			vertex 0.000000 0.000000 15.000000
			vertex -0.783752 6.955985 14.999999
			vertex -5.927070 3.724224 14.999999
		end loop
	endfacet
facet normal -48.476406 77.149765 0.000000
		outer loop
			vertex -0.783752 6.955985 0.000000
			vertex -5.927070 3.724224 0.000000
			vertex -0.783752 6.955985 14.999999
		end loop
	endfacet
facet normal -48.476406 77.149765 0.000000
		outer loop
			vertex -5.927070 3.724224 0.000000
			vertex -5.927070 3.724224 14.999999
			vertex -0.783752 6.955985 14.999999
		end loop
	endfacet
facet normal 0.000000 0.000000 1.000000
		outer loop
			vertex 0.000000 0.000000 0.000000
			vertex -5.927070 3.724224 0.000000
			vertex -6.607183 -2.311953 0.000000
		end loop
	endfacet
facet normal 0.000000 0.000000 1.000000
		outer loop
			vertex 0.000000 0.000000 15.000000
			vertex -5.927070 3.724224 14.999999
			vertex -6.607183 -2.311953 14.999999
		end loop
	endfacet
facet normal -90.542648 10.201699 0.000000
		outer loop
			vertex -5.927070 3.724224 0.000000
			vertex -6.607183 -2.311953 0.000000
			vertex -5.927070 3.724224 14.999999
		end loop
	endfacet
facet normal -90.542648 10.201699 0.000000
		outer loop
			vertex -6.607183 -2.311953 0.000000
			vertex -6.607183 -2.311953 14.999999
			vertex -5.927070 3.724224 14.999999
		end loop
	endfacet
facet normal 0.000000 0.000000 1.000000
		outer loop
			vertex 0.000000 0.000000 0.000000
			vertex -6.607183 -2.311953 0.000000
			vertex -2.311953 -6.607183 0.000000
		end loop
	endfacet
facet normal 0.000000 0.000000 1.000000
		outer loop
			vertex 0.000000 0.000000 15.000000
			vertex -6.607183 -2.311953 14.999999
			vertex -2.311953 -6.607183 14.999999
		end loop
	endfacet
facet normal -64.428444 -64.428452 -0.000000
		outer loop
			vertex -6.607183 -2.311953 0.000000
			vertex -2.311953 -6.607183 0.000000
			vertex -6.607183 -2.311953 14.999999
		end loop
	endfacet
facet normal -64.428444 -64.428452 -0.000000
		outer loop
			vertex -2.311953 -6.607183 0.000000
			vertex -2.311953 -6.607183 14.999999
			vertex -6.607183 -2.311953 14.999999
		end loop
	endfacet
facet normal 0.000000 0.000000 1.000000
		outer loop
			vertex 0.000000 0.000000 0.000000
			vertex -2.311953 -6.607183 0.000000
			vertex 3.724224 -5.927070 0.000000
		end loop
	endfacet
facet normal 0.000000 0.000000 1.000000
		outer loop
			vertex 0.000000 0.000000 15.000000
			vertex -2.311953 -6.607183 14.999999
			vertex 3.724224 -5.927070 14.999999
		end loop
	endfacet
facet normal 10.201699 -90.542641 0.000000
		outer loop
			vertex -2.311953 -6.607183 0.000000
			vertex 3.724224 -5.927070 0.000000
			vertex -2.311953 -6.607183 14.999999
		end loop
	endfacet
facet normal 10.201699 -90.542641 0.000000
		outer loop
			vertex 3.724224 -5.927070 0.000000
			vertex 3.724224 -5.927070 14.999999
			vertex -2.311953 -6.607183 14.999999
		end loop
	endfacet
facet normal 0.000000 0.000000 1.000000
		outer loop
			vertex 0.000000 0.000000 0.000000
			vertex 3.724224 -5.927070 0.000000
			vertex 6.955985 -0.783752 0.000000
		end loop
	endfacet
facet normal 0.000000 0.000000 1.000000
		outer loop
			vertex 0.000000 0.000000 15.000000
			vertex 3.724224 -5.927070 14.999999
			vertex 6.955985 -0.783752 14.999999
		end loop
	endfacet
facet normal 77.149750 -48.476406 0.000000
		outer loop
			vertex 3.724224 -5.927070 0.000000
			vertex 6.955985 -0.783752 0.000000
			vertex 3.724224 -5.927070 14.999999
		end loop
	endfacet
facet normal 77.149750 -48.476406 0.000000
		outer loop
			vertex 6.955985 -0.783752 0.000000
			vertex 6.955985 -0.783752 14.999999
			vertex 3.724224 -5.927070 14.999999
		end loop
	endfacet
facet normal 0.000000 0.000000 1.000000
		outer loop
			vertex 0.000000 0.000000 0.000000
			vertex 6.955985 -0.783752 0.000000
			vertex 4.949747 4.949748 0.000000
		end loop
	endfacet
facet normal 0.000000 0.000000 1.000000
		outer loop
			vertex 0.000000 0.000000 15.000000
			vertex 6.955985 -0.783752 14.999999
			vertex 4.949747 4.949748 14.999999
		end loop
	endfacet
facet normal 86.002487 30.093567 0.000000
		outer loop
			vertex 6.955985 -0.783752 0.000000
			vertex 4.949747 4.949748 0.000000
			vertex 6.955985 -0.783752 14.999999
		end loop
	endfacet
facet normal 86.002487 30.093567 0.000000
		outer loop
			vertex 4.949747 4.949748 0.000000
			vertex 4.949747 4.949748 14.999999
			vertex 6.955985 -0.783752 14.999999
		end loop
	endfacet
endsolid prism_001
